<svg id="loader-logo" xmlns="http://www.w3.org/2000/svg" width="50" height="50" viewBox="0 0 120 120">
<path d="M 10.960 3.303 C 7.984 4.877, 5.877 6.984, 4.303 9.960 C 2.020 14.277, 2 14.634, 2 51 C 2 87.366, 2.020 87.723, 4.303 92.040 C 5.877 95.016, 7.984 97.123, 10.960 98.697 C 15.290 100.987, 15.538 101, 54.189 101 C 84.975 101, 93.734 100.713, 96.282 99.623 C 100.174 97.958, 104.489 93.516, 105.936 89.685 C 107.388 85.842, 107.388 16.158, 105.936 12.315 C 104.489 8.484, 100.174 4.042, 96.282 2.377 C 93.734 1.287, 84.975 1, 54.189 1 C 15.538 1, 15.290 1.013, 10.960 3.303 M 50.667 4.667 C 50.300 5.033, 50 17.416, 50 32.184 L 50 59.034 75.250 58.767 C 98.078 58.526, 100.500 58.340, 100.500 56.828 C 100.500 54.877, 54.299 4, 52.527 4 C 51.870 4, 51.033 4.300, 50.667 4.667 M 24.500 42.495 C 16.250 49.895, 9.355 56.636, 9.177 57.475 C 8.897 58.795, 11.153 59, 25.953 59 L 43.053 59 42.777 44.263 C 42.548 32.083, 42.240 29.483, 41 29.283 C 40.175 29.149, 32.750 35.095, 24.500 42.495 M 10.546 63.925 C 9.445 65.708, 12.170 79.498, 14.634 84.609 C 15.989 87.420, 18.344 90.913, 19.868 92.373 L 22.638 95.027 56.019 94.764 L 89.399 94.500 92.601 90.302 C 96.372 85.357, 99.800 75.533, 100.209 68.500 L 100.500 63.500 55.815 63.240 C 28.517 63.081, 10.903 63.347, 10.546 63.925 M 35.440 76.451 C 34.494 77.895, 34.102 79.745, 34.485 80.952 C 35.978 85.658, 43.117 86.033, 45.176 81.513 C 47.882 75.574, 39.031 70.971, 35.440 76.451 M 64.381 76.541 C 63.056 78.564, 62.942 79.577, 63.824 81.513 C 64.977 84.044, 68.897 85.637, 71.506 84.636 C 74.080 83.648, 75.488 79.366, 74.182 76.500 C 72.552 72.922, 66.737 72.946, 64.381 76.541" stroke="none" fill="#FFFFFF" fill-rule="evenodd"/>
</svg>