<?xml version="1.0" standalone="no"?>
<!DOCTYPE svg PUBLIC "-//W3C//DTD SVG 20010904//EN"
 "http://www.w3.org/TR/2001/REC-SVG-20010904/DTD/svg10.dtd">
<svg version="1.0" xmlns="http://www.w3.org/2000/svg"
 width="105.000000pt" height="105.000000pt" viewBox="0 0 105.000000 105.000000"
 preserveAspectRatio="xMidYMid meet">
<metadata>
Created by potrace 1.14, written by Peter Selinger 2001-2017
</metadata>
<g transform="translate(0.000000,105.000000) scale(0.100000,-0.100000)"
fill="#000000" stroke="none">
<path d="M90 1007 c-30 -16 -51 -37 -67 -67 -23 -43 -23 -46 -23 -410 0 -364
0 -367 23 -410 16 -30 37 -51 67 -67 43 -23 45 -23 432 -23 308 0 395 3 421
14 39 16 82 61 96 99 15 39 15 735 0 774 -14 38 -57 83 -96 99 -26 11 -113 14
-421 14 -387 0 -389 0 -432 -23z m661 -263 c129 -140 234 -263 234 -272 0 -15
-24 -17 -252 -20 l-253 -2 0 268 c0 148 3 272 7 275 3 4 12 7 18 7 7 0 117
-115 246 -256z m-343 -147 l3 -147 -171 0 c-148 0 -171 2 -168 15 5 23 300
285 318 282 12 -2 15 -28 18 -150z m574 -242 c-4 -70 -38 -169 -76 -218 l-32
-42 -334 -3 -334 -2 -27 26 c-16 15 -39 50 -53 78 -24 51 -52 189 -41 207 4 6
180 8 453 7 l447 -3 -3 -50z"/>
<path d="M334 275 c-9 -14 -13 -32 -9 -45 15 -47 86 -50 107 -5 27 59 -62 105
-98 50z"/>
<path d="M624 275 c-13 -21 -15 -31 -6 -50 12 -25 51 -41 77 -31 26 10 40 52
27 81 -16 36 -75 36 -98 0z"/>
</g>
</svg>
