<?xml version="1.0" standalone="no"?>
<!DOCTYPE svg PUBLIC "-//W3C//DTD SVG 20010904//EN"
 "http://www.w3.org/TR/2001/REC-SVG-20010904/DTD/svg10.dtd">
<svg version="1.0" xmlns="http://www.w3.org/2000/svg"
 width="700.000000pt" height="700.000000pt" viewBox="0 0 700.000000 700.000000"
 preserveAspectRatio="xMidYMid meet">
<metadata>
Created by potrace 1.14, written by Peter Selinger 2001-2017
</metadata>
<g transform="translate(0.000000,700.000000) scale(0.100000,-0.100000)"
fill="#000000" stroke="none">
<path d="M2736 4095 c-110 -21 -180 -43 -261 -80 -98 -46 -409 -221 -413 -233
-3 -10 202 -327 218 -337 5 -3 69 28 142 68 256 143 298 159 423 160 98 1 171
-16 250 -57 65 -33 185 -142 185 -167 0 -9 -84 -63 -217 -139 -778 -441 -960
-544 -980 -554 -13 -6 -23 -15 -23 -20 0 -14 43 -86 52 -86 10 0 1258 707
1308 741 l23 15 -45 70 c-78 118 -139 177 -250 237 -102 56 -259 84 -373 67
-108 -16 -167 -39 -314 -120 -71 -38 -134 -70 -140 -70 -6 0 -34 35 -62 77
-46 70 -49 77 -33 87 109 66 335 181 394 200 328 105 682 17 925 -228 76 -76
96 -106 335 -491 170 -274 184 -297 192 -301 11 -7 88 37 88 50 0 18 -438 710
-482 761 -192 224 -451 348 -748 360 -78 3 -140 0 -194 -10z"/>
<path d="M4450 4085 c-80 -20 -127 -42 -195 -90 -65 -47 -77 -59 -129 -135
-54 -79 -78 -152 -83 -261 -7 -115 6 -180 53 -276 78 -156 246 -270 428 -289
228 -23 461 124 548 347 30 77 37 244 13 325 -38 133 -133 257 -247 322 -111
64 -267 86 -388 57z m212 -106 c121 -25 226 -109 290 -230 32 -62 33 -68 33
-179 0 -114 -1 -117 -38 -192 -97 -196 -322 -285 -526 -207 -110 41 -183 110
-235 219 -29 60 -31 73 -31 175 0 103 2 114 32 177 87 185 276 279 475 237z"/>
<path d="M2841 2768 c-70 -97 -219 -195 -371 -243 -72 -24 -103 -28 -205 -28
-144 -1 -212 14 -340 77 -89 44 -185 123 -232 190 l-20 29 -41 -28 c-23 -15
-42 -34 -42 -42 0 -23 170 -185 233 -222 314 -184 713 -148 1000 91 l47 39 47
-41 c309 -272 812 -276 1145 -9 38 30 65 46 72 40 6 -4 36 -28 66 -52 75 -60
198 -123 305 -155 76 -22 110 -26 220 -27 73 -1 156 5 190 12 82 18 208 70
280 116 66 42 215 186 215 208 0 18 -80 72 -89 60 -4 -4 -22 -27 -40 -50 -67
-88 -220 -180 -361 -219 -90 -24 -271 -25 -365 0 -118 30 -242 97 -322 173
-38 38 -78 79 -86 92 l-16 25 -74 -76 c-239 -246 -635 -307 -941 -145 -57 30
-191 152 -227 206 l-15 24 -33 -45z"/>
</g>
</svg>
